Coordinates
nRows=110
nColumns=2
inDegrees=yes
endheader
time	ankle_angle_r	
3.0625	 18.684356	
3.125	 18.706203	
3.1875	 18.705363	
3.25	 18.718698	
3.3125	 18.744922	
3.375	 18.745824	
3.4375	 18.733060	
3.5	 18.724110	
3.5625	 18.712654	
3.625	 18.691996	
3.6875	 18.685501	
3.75	 18.722900	
3.8125	 18.746798	
3.875	 18.726814	
3.9375	 18.722144	
4	 18.718770	
4.0625	 18.699386	
4.125	 18.697069	
4.1875	 18.695866	
4.25	 18.697686	
4.3125	 18.714406	
4.375	 18.731615	
4.4375	 18.744505	
4.5	 18.731664	
4.5625	 18.706969	
4.625	 18.693971	
4.6875	 18.673180	
4.75	 18.679488	
4.8125	 18.722443	
4.875	 18.740944	
4.9375	 18.738559	
5	 18.717380	
5.0625	 18.681194	
5.125	 18.682994	
5.1875	 18.709334	
5.25	 18.742826	
5.3125	 18.775885	
5.375	 18.772113	
5.4375	 18.763859	
5.5	 18.757187	
5.5625	 18.726112	
5.625	 18.726806	
5.6875	 18.756174	
5.75	 18.760971	
5.8125	 18.766876	
5.875	 18.781340	
5.9375	 18.787641	
6	 18.784185	
6.0625	 18.755914	
6.125	 18.736946	
6.1875	 18.749168	
6.25	 18.755252	
6.3125	 18.759436	
6.375	 18.763819	
6.4375	 18.760638	
6.5	 18.770108	
6.5625	 18.769527	
6.625	 18.743515	
6.6875	 18.719987	
6.75	 18.719377	
6.8125	 18.754247	
6.875	 18.784686	
6.9375	 18.779249	
7	 18.772778	
7.0625	 18.760745	
7.125	 18.740961	
7.1875	 18.734976	
7.25	 18.726966	
7.3125	 18.732198	
7.375	 18.756004	
7.4375	 18.774595	
7.5	 18.794108	
7.5625	 18.779154	
7.625	 18.740946	
7.6875	 18.754619	
7.75	 18.777386	
7.8125	 18.784853	
7.875	 18.815394	
7.9375	 18.825853	
8	 18.814463	
8.0625	 18.805939	
8.125	 18.786923	
8.1875	 18.786880	
8.25	 18.794842	
8.3125	 18.779982	
8.375	 18.770270	
8.4375	 18.772508	
8.5	 18.777309	
8.5625	 18.768835	
8.625	 18.739133	
8.6875	 18.730796	
8.75	 18.741142	
8.8125	 18.744391	
8.875	 18.764070	
8.9375	 18.774818	
9	 18.758971	
9.0625	 18.751283	
9.125	 18.744904	
9.1875	 18.744211	
9.25	 18.746191	
9.3125	 18.734948	
9.375	 18.753749	
9.4375	 18.781252	
9.5	 18.774200	
9.5625	 18.780194	
9.625	 18.793320	
9.6875	 18.779068	
9.75	 18.761525	
9.8125	 18.745299	
9.875	 18.722525	
